<svg width="80.000000" height="80.000000" viewBox="0 0 80 80" fill="none" xmlns="http://www.w3.org/2000/svg" xmlns:xlink="http://www.w3.org/1999/xlink">
	<desc>
			Created with Pixso.
	</desc>
	<defs/>
	<path id="Vector" d="M29.6 57.31L57.31 39.49L29.6 21.68L29.6 57.31ZM39.5 79.08C34.02 79.08 28.87 78.04 24.06 75.96C19.24 73.88 15.05 71.06 11.49 67.5C7.93 63.94 5.11 59.75 3.03 54.93C0.95 50.12 -0.09 44.97 -0.09 39.49C-0.09 34.02 0.95 28.87 3.03 24.06C5.11 19.24 7.93 15.05 11.49 11.49C15.05 7.93 19.24 5.11 24.06 3.03C28.87 0.95 34.02 -0.09 39.5 -0.09C44.97 -0.09 50.12 0.95 54.93 3.03C59.75 5.11 63.94 7.93 67.5 11.49C71.06 15.05 73.88 19.24 75.96 24.06C78.04 28.87 79.08 34.02 79.08 39.49C79.08 44.97 78.04 50.12 75.96 54.93C73.88 59.75 71.06 63.94 67.5 67.5C63.94 71.06 59.75 73.88 54.93 75.96C50.12 78.04 44.97 79.08 39.5 79.08Z" fill="#BDBDBD" fill-opacity="0.870000" fill-rule="nonzero"/>
</svg>
